<?xml version="1.0" encoding="utf-8"?>
<!-- Generator: Adobe Illustrator 21.1.0, SVG Export Plug-In . SVG Version: 6.00 Build 0)  -->
<!DOCTYPE svg PUBLIC "-//W3C//DTD SVG 1.1//EN" "http://www.w3.org/Graphics/SVG/1.1/DTD/svg11.dtd">
<svg version="1.1" id="Capa_1" xmlns="http://www.w3.org/2000/svg" xmlns:xlink="http://www.w3.org/1999/xlink" x="0px" y="0px"
	 width="53.5px" height="60px" viewBox="0 0 53.5 60" style="enable-background:new 0 0 53.5 60;" xml:space="preserve">
<style type="text/css">
	.st0{fill:#5DAE3F;}
	.st1{fill:#FFFFFF;}
</style>
<path class="st0" d="M42,7.9C38.1,3.5,32.8,1,27.2,1S16.3,3.5,12.4,7.9c-8,9.1-8,23.8,0,32.9l14.8,16.7L42,40.8
	C50,31.7,50,17,42,7.9z M39.4,38.5"/>
<path class="st1" d="M27.2,11.4c-5.8,0-10.4,4.7-10.4,10.4s4.7,10.4,10.4,10.4s10.4-4.7,10.4-10.4S32.9,11.4,27.2,11.4z M27.2,28.8
	c-3.8,0-7-3.1-7-7s3.1-7,7-7s7,3.1,7,7S31,28.8,27.2,28.8z"/>
</svg>
